<svg xmlns="http://www.w3.org/2000/svg" width="618.999" height="242.63" viewBox="0 0 618.999 242.63">
  <g id="Group_2" data-name="Group 2" transform="translate(-655 -420)">
    <path id="Path_9" data-name="Path 9" d="M219.766,147.889H97.468l27.092,19.832,26.529-9.549h68.677v33.789l-13.751,27.178L124.561,254.4,36.427,219.138.938,134.172,36.427,45.881l88.134-34.115,81.455,29.468,13.751,39.812ZM151.089,95.737,124.561,81.046S97.468,95,97.468,95.737Z" transform="translate(654.063 408.234)" fill="#dac68d"/>
    <path id="Subtraction_3" data-name="Subtraction 3" d="M2,163.6H2V4.4L50,14V24h50V124H50v30L2,163.6ZM50,57V91h5V57Zm224.434,77h0L250,124l-25,10-24-9.6V93h66V91H201V24h99V57H233v2h67v65l-25.566,10ZM175,134h0l-25.436-10H102V24h97V124.4L175,134ZM145,57V91h5V57Zm205,67h0l-24.713-10L302,123.209V93h49V91H302V24h48l33,33H334v2h51l15,15Z" transform="translate(874 468)" fill="#dac68d"/>
  </g>
</svg>
