<svg xmlns="http://www.w3.org/2000/svg" width="289" height="371" viewBox="0 0 289 371">
  <path id="lock" d="M20,371A20,20,0,0,1,0,351V146.73a30.011,30.011,0,0,1,24.273-29.455,131.322,131.322,0,0,1,2.176-16.846,129.225,129.225,0,0,1,7.021-23.61A127.617,127.617,0,0,1,44.58,55.454,125.627,125.627,0,0,1,59.294,36.84,122.632,122.632,0,0,1,77.127,21.481,118.938,118.938,0,0,1,97.6,9.885a116.077,116.077,0,0,1,93.808,0,118.9,118.9,0,0,1,20.469,11.6A122.638,122.638,0,0,1,229.707,36.84a125.744,125.744,0,0,1,14.714,18.615,127.679,127.679,0,0,1,11.11,21.365,129.228,129.228,0,0,1,7.022,23.61,131.471,131.471,0,0,1,2.175,16.846A30.01,30.01,0,0,1,289,146.73V351a20,20,0,0,1-20,20ZM220,116.729c-.226-44.947-34.008-81.439-75.5-81.439S69.228,71.782,69,116.729Z" fill="#444"/>
</svg>
