<svg xmlns="http://www.w3.org/2000/svg" width="618.999" height="371" viewBox="0 0 618.999 371">
  <g id="lockAndKey" transform="translate(-651 -306)">
    <path id="lock" d="M20,371A20,20,0,0,1,0,351V146.73a30.011,30.011,0,0,1,24.273-29.455,131.322,131.322,0,0,1,2.176-16.846,129.225,129.225,0,0,1,7.021-23.61A127.617,127.617,0,0,1,44.58,55.454,125.627,125.627,0,0,1,59.294,36.84,122.632,122.632,0,0,1,77.127,21.481,118.938,118.938,0,0,1,97.6,9.885a116.077,116.077,0,0,1,93.808,0,118.9,118.9,0,0,1,20.469,11.6A122.638,122.638,0,0,1,229.707,36.84a125.744,125.744,0,0,1,14.714,18.615,127.679,127.679,0,0,1,11.11,21.365,129.228,129.228,0,0,1,7.022,23.61,131.471,131.471,0,0,1,2.175,16.846A30.01,30.01,0,0,1,289,146.73V351a20,20,0,0,1-20,20ZM220,116.729c-.226-44.947-34.008-81.439-75.5-81.439S69.228,71.782,69,116.729Z" transform="translate(816 306)" fill="#444"/>
    <g id="epassLogo" transform="translate(-4 -1)">
      <path id="Path_9" data-name="Path 9" d="M219.766,147.889H97.468l27.092,19.832,26.529-9.549h68.677v33.789l-13.751,27.178L124.561,254.4,36.427,219.138.938,134.172,36.427,45.881l88.134-34.115,81.455,29.468,13.751,39.812ZM151.089,95.737,124.561,81.046S97.468,95,97.468,95.737Z" transform="translate(654.063 408.234)" fill="#dab86a"/>
      <path id="Subtraction_3" data-name="Subtraction 3" d="M2,163.6H2V4.4L50,14V24h50V124H50v30L2,163.6ZM50,57V91h5V57Zm224.434,77h0L250,124l-25,10-24-9.6V93h66V91H201V24h99V57H233v2h67v65l-25.566,10ZM175,134h0l-25.436-10H102V24h97V124.4L175,134ZM145,57V91h5V57Zm205,67h0l-24.713-10L302,123.209V93h49V91H302V24h48l33,33H334v2h51l15,15Z" transform="translate(874 468)" fill="#dab86a"/>
    </g>
  </g>
</svg>
